<?xml version="1.0" encoding="utf-8"?>
<!-- Generator: Adobe Illustrator 23.0.1, SVG Export Plug-In . SVG Version: 6.00 Build 0)  -->
<svg version="1.1"
	 id="Layer_1" inkscape:version="0.92.3 (2405546, 2018-03-11)" sodipodi:docname="hci-logo.svg" xmlns:cc="http://creativecommons.org/ns#" xmlns:dc="http://purl.org/dc/elements/1.1/" xmlns:inkscape="http://www.inkscape.org/namespaces/inkscape" xmlns:rdf="http://www.w3.org/1999/02/22-rdf-syntax-ns#" xmlns:sodipodi="http://sodipodi.sourceforge.net/DTD/sodipodi-0.dtd" xmlns:svg="http://www.w3.org/2000/svg"
	 xmlns="http://www.w3.org/2000/svg" xmlns:xlink="http://www.w3.org/1999/xlink" x="0px" y="0px" viewBox="0 0 379.7 281.9"
	 style="enable-background:new 0 0 379.7 281.9;" xml:space="preserve">
<style type="text/css">
	.st0{fill:#FFFFFF;}
	.st1{fill:#FFCC79;}
	.st2{fill:#59B4E2;}
	.st3{fill:#FFD400;}
	.st4{fill:#333366;}
</style>
<g>
	
		<path id="path5253-9" inkscape:connector-curvature="0" inkscape:export-xdpi="300.06" inkscape:export-ydpi="300.06" class="st2" d="
		M110.1,224.5c2.1,0.7,1.9,1.6,1.9,3.7c0,2,0,4.1-0.1,6.1c-0.4,5.6-1.7,11.7-6.2,15c-4.1,3.1-9.7,3-14.9,2.7L66,250.9
		c-6.4-0.3-13.6-0.9-17.9-5.7c-3.2-3.6-4.1-8.7-4.7-13.4c-2.9-18.4-7.2-36.5-12.7-54.2c-7.4-10.4-11.7-22.6-12.7-35.3
		C14.7,98,54.4,59,106.6,55.2c15.1-1.2,30.2,0.8,44.4,5.9l2.1,0.8l1,0.4l2.3,0.9c0,0,0,0,0.1,0c11.7,4.9,21.2,10.7,34.2,12.3
		c11.5,1.3,23.7,1.9,36.5-6.8c4.7,32.7,8.1,67,12.8,99.7c0.8,5.6,26.9-0.9,30.7,2c7.8-1.3,13-2,13-1.7c0.9,16.5,1.9,33,2.8,49.5
		c0.3,5.8,0.7,11.7-1.2,17.2c-2.9,8.8-6.3,9.8-15,12.9c-2.7,1-5.5,1.7-8.4,2.3c-9.8,1.9-15-5.8-18.3-15.9l-1.8-9.3
		c-0.6-2.3-2.8-3.8-5.1-3.5l-7.5-0.6c-2.6,0.3-4.4,2.7-4,5.2c0,0.1,0,0.1,0,0.2c1,4.9,1.3,10,1,15c-0.6,6.6-3.2,13.4-8.3,17.5
		c-5.7,4.6-13.5,5.5-20.8,6.1c-7.1,0.6-14.6,1.1-20.8-2.5c-5-2.8-8.3-7.8-11-12.8c-2.8-5.2-3.3-10.9-4.5-16.6
		c-0.5-2.8-3.2-4.7-6-4.4c-21.5,2.8-43.2-4.6-43.1-4.2c0,0-18.4-2.1-29.8-16"/>
	
		<path id="path5255-3" inkscape:connector-curvature="0" inkscape:export-xdpi="300.06" inkscape:export-ydpi="300.06" class="st4" d="
		M111.8,219.8c0.9,0.3,1.7,0.7,2.4,1.2c0.6,0.5,1.2,1,1.6,1.6c0.5,0.7,0.8,1.4,1,2.2c0.2,0.8,0.3,1.6,0.3,2.4v1.2c0,1.7,0,3.4,0,5.2
		c-0.1,3.8-0.8,7.6-2,11.2c-0.7,2.1-1.8,4-3.2,5.7c-1.5,1.8-3.3,3.3-5.4,4.4c-1.9,1-4,1.7-6.2,2c-1.9,0.3-3.8,0.4-5.7,0.4
		c-1.8,0-3.5-0.1-5.1-0.1l-4.9-0.2l-9.8-0.4l-9.9-0.4c-3.7-0.1-7.4-0.6-10.9-1.6c-2-0.6-4-1.5-5.8-2.6c-1.9-1.2-3.6-2.8-5-4.7
		c-1.3-1.8-2.3-3.7-3-5.8c-0.6-1.8-1.1-3.7-1.4-5.5c-0.3-1.8-0.5-3.5-0.8-5s-0.5-3.1-0.8-4.7c-0.6-3.2-1.2-6.3-1.8-9.5
		c-2.7-12.6-5.9-25.3-9.8-37.5l0,0l0.7,1.4c-6-8.3-10.3-17.7-12.5-27.7c-2.2-10.1-2.4-20.5-0.3-30.6c2.1-10,6-19.6,11.7-28.1
		c5.6-8.4,12.5-15.8,20.5-22c7.9-6.1,16.7-11.1,26-14.7c9.2-3.6,18.9-6,28.8-7.2c9.8-1.1,19.8-1,29.6,0.3c4.9,0.7,9.8,1.7,14.5,2.9
		c4.8,1.3,9.4,2.9,14,4.9l2.4,2c-0.3-0.5-0.7-1-1.2-1.3c-0.3-0.2-0.6-0.4-1-0.6c-0.3-0.1-0.5-0.2-0.8-0.3l-0.5-0.1H157h-0.3h-0.5
		l2.3,0.4c5.9,2.5,11.5,5.3,17,7.6c5.3,2.3,10.9,3.8,16.6,4.4c5.7,0.8,11.5,0.8,17.2,0c5.4-0.9,10.6-3,15.1-6.1l6.7-4.5l1.1,7.9
		c3.2,21.9,5.7,43.9,8.4,65.7c1.3,10.9,2.8,21.8,4.3,32.7l0.1,1v0.3c0-0.2-0.1-0.3-0.1-0.5c-0.1-0.3-0.3-0.7-0.5-1
		c-0.2-0.3-0.5-0.6-0.8-0.8c-0.1-0.1-0.1-0.1,0,0c0.9,0.2,1.8,0.3,2.7,0.3c2.4,0.1,5-0.1,7.7-0.3c2.7-0.2,5.5-0.5,8.3-0.7
		c1.4-0.1,2.9-0.2,4.5-0.1c0.9,0,1.8,0.1,2.7,0.2c0.6,0.1,1.2,0.2,1.7,0.4c0.9,0.3,1.8,0.7,2.6,1.3l-3.9-1c2.8-0.5,5.7-0.9,8.6-1.4
		l2.2-0.3l1.2-0.1l0.7,0c0.3,0,0.7,0,1,0h0.5h0.3l0.3,0.1l0.4,0.1c0.2,0,0.3,0.1,0.5,0.2c0.4,0.2,0.8,0.4,1.1,0.6
		c0.7,0.5,1.3,1.2,1.7,2c0.6,1.6,0.4,2.3,0.5,1.9v0.1v0.5l0.1,1.1l0.1,2.1l1,17l1,17l0.5,8.5c0.2,2.8,0.4,5.7,0.4,8.7
		c0.1,3.2-0.1,6.4-0.7,9.5c-0.2,0.8-0.3,1.7-0.6,2.5l-0.4,1.2l-0.4,1.1c-0.3,0.8-0.6,1.5-0.9,2.3c-0.3,0.8-0.8,1.6-1.2,2.4
		c-1,1.7-2.3,3.3-3.8,4.6c-1.4,1.2-3.1,2.2-4.8,3c-1.5,0.7-3,1.2-4.3,1.8c-1.3,0.5-2.6,1-4.2,1.5c-1.6,0.5-3,0.9-4.5,1.3
		c-0.8,0.2-1.5,0.4-2.3,0.5c-0.4,0.1-0.7,0.1-1.2,0.2c-0.5,0.1-0.9,0.1-1.4,0.2c-2,0.2-4,0.1-5.9-0.3c-2-0.5-3.9-1.3-5.6-2.4
		c-3-2.1-5.5-4.9-7.2-8.1c-1.5-2.8-2.8-5.8-3.7-8.8l-0.1-0.3l-0.1-0.3l-1.5-7.8l-0.2-1c0-0.1-0.1-0.5,0-0.3c0,0,0,0.1,0,0.1l0,0
		c0,0.1,0.1,0.1,0.1,0.2c0.1,0.1,0.2,0.1,0.4,0.1h-1l-7.5-0.6h1c0.2,0,0.4-0.2,0.4-0.3c0,0,0-0.1,0-0.1v-0.1l0,0v0.2l0.1,0.4
		c0.2,0.9,0.3,1.8,0.4,2.8c0.6,3.9,0.8,7.8,0.6,11.7c-0.2,4.2-1.2,8.3-2.8,12.2c-1.7,4.1-4.5,7.8-8,10.5c-3.5,2.6-7.5,4.4-11.7,5.3
		c-3.7,0.9-7.5,1.5-11.3,1.8c-3.8,0.4-7.7,0.5-11.5,0.3c-4.4-0.2-8.7-1.4-12.5-3.6c-3.7-2.3-6.8-5.4-9.2-9c-1.1-1.7-2.2-3.3-3.1-5
		l-0.3-0.6l-0.4-0.7c-0.3-0.5-0.5-1-0.7-1.5c-0.4-1-0.8-2-1.2-3c-1.1-3.7-1.9-7.4-2.5-11.2l-0.2-1.3l-0.1-0.3c0-0.1,0-0.2,0-0.2l0,0
		c0-0.1,0-0.1-0.1-0.2c0,0-0.1-0.1-0.2-0.1c0,0-0.1,0-0.1,0s0,0,0,0l-0.7,0.1c-7.5,0.8-15.1,0.8-22.7-0.2c-3.7-0.4-7.4-1-11-1.8
		c-1.8-0.4-3.6-0.8-5.4-1.2l-2.7-0.7l-1.3-0.3l-0.6-0.1h-0.2l0,0h0.1h0.1h0.2c0.3,0,0.6,0,0.9,0c-1.3,0.1,3,0.7,4.3-5.1l-5.7,5.1
		c-0.6-0.1-0.9-0.1-1.3-0.2l-1.2-0.2c-0.8-0.2-1.6-0.3-2.3-0.5c-1.5-0.4-3-0.8-4.5-1.4c-3-1-5.8-2.3-8.6-3.9
		c-2.8-1.5-5.4-3.4-7.8-5.4c-2.4-2.1-4.5-4.5-6.3-7.1c-1.2-1.6-0.8-3.9,0.9-5c1.4-1,3.4-0.9,4.6,0.4l0.1,0.1c1.9,1.8,3.9,3.5,6,4.9
		c2.2,1.5,4.4,2.8,6.8,3.9c2.4,1.1,4.8,2.1,7.3,2.8c1.3,0.4,2.5,0.8,3.8,1c0.6,0.1,1.3,0.3,1.9,0.4L111.8,219.8l0.8,0.1L107,225
		c1.3-5.8,5.6-5.2,4.4-5.1c0.3,0,0.7,0,1,0h0.3h0.2l0.4,0.1l0.5,0.1l0.7,0.2l1.3,0.3l2.5,0.6c1.7,0.4,3.4,0.8,5.1,1.1
		c3.4,0.7,6.8,1.2,10.2,1.6c6.7,0.8,13.5,0.9,20.3,0.1l0.7-0.1c0.4-0.1,0.9-0.1,1.3-0.1c2.6,0,5.2,1,7.1,2.8
		c1.3,1.2,2.2,2.7,2.8,4.3c0.1,0.4,0.3,0.8,0.3,1.2l0.2,0.8l0.3,1.4c0.5,3.3,1.2,6.6,2.1,9.8c0.2,0.7,0.5,1.3,0.8,2
		c0.2,0.3,0.3,0.6,0.5,1l0.3,0.5l0.3,0.6c0.8,1.5,1.7,2.9,2.6,4.1c1.5,2.4,3.6,4.5,6,6c2.5,1.3,5.2,2.1,8,2.2c3.3,0.2,6.6,0,9.9-0.3
		c3.3-0.2,6.6-0.7,9.9-1.4c2.8-0.6,5.5-1.7,7.8-3.4c4.1-3.1,6.4-9.1,6.8-15.1c0.1-3.2,0-6.5-0.5-9.7c-0.1-0.8-0.2-1.7-0.4-2.5
		l-0.1-0.3l-0.1-0.5c-0.1-0.5-0.1-0.9-0.1-1.4c0-0.9,0.2-1.9,0.4-2.8c1.1-3.7,4.4-6.4,8.2-6.9l0.5-0.1h0.5l7.5,0.6h-1
		c2.9-0.3,5.7,0.6,7.8,2.5c1.1,1,1.9,2.1,2.4,3.5l0.2,0.5l0.2,0.6c0.1,0.5,0.1,0.5,0.2,0.7l0.2,1l1.5,8.1l-0.2-0.6
		c0.7,2.4,1.7,4.7,2.9,6.9c0.9,1.8,2.3,3.4,3.9,4.6c1.4,0.9,3.1,1.3,4.7,1c0.2,0,0.5-0.1,0.7-0.1s0.6-0.1,0.9-0.2
		c0.7-0.1,1.3-0.3,1.9-0.4c1.3-0.3,2.5-0.6,3.7-1s2.6-0.9,3.8-1.4c1.3-0.5,2.5-1,3.6-1.4c0.9-0.4,1.7-0.9,2.5-1.5
		c0.6-0.6,1.2-1.2,1.6-2c0.3-0.5,0.5-0.9,0.7-1.4c0.2-0.5,0.4-1,0.7-1.6l0.3-0.9l0.2-0.8c0.2-0.5,0.3-1.1,0.4-1.7
		c0.4-2.5,0.6-5,0.5-7.5c-0.1-2.6-0.3-5.5-0.4-8.3l-0.5-8.5l-1-17.1l-1-17l-0.1-2.1l-0.1-1.1v-0.5v-0.1c0,0.6,0.2,1.3,0.4,1.8
		c0.4,0.8,0.9,1.5,1.7,2c0.3,0.2,0.6,0.4,1,0.6c0.1,0.1,0.3,0.1,0.4,0.1l0.3,0.1h0.2h0.2h0.2h-0.1h-0.4l-0.9,0.1l-2,0.3
		c-2.7,0.4-5.5,0.8-8.3,1.3l-3.9-1c0.2,0.2,0.5,0.3,0.7,0.4c-0.1,0-0.2,0-0.3-0.1c-0.5-0.1-1-0.1-1.5-0.1c-1.1,0-2.4,0-3.7,0.1
		c-2.6,0.2-5.4,0.4-8.2,0.6c-2.8,0.2-5.6,0.4-8.8,0.4c-0.8,0-1.6-0.1-2.5-0.2c-1-0.1-2-0.3-3-0.6c-0.7-0.2-1.3-0.5-1.9-0.9
		c-1-0.5-1.8-1.3-2.4-2.2c-0.4-0.6-0.7-1.2-0.9-1.9c-0.1-0.3-0.2-0.7-0.2-1v-0.3l-0.1-1c-1.6-11-3-21.9-4.3-32.9
		c-2.7-21.9-5.2-43.8-8.3-65.6l7.8,3.4c-5.8,3.9-12.3,6.5-19.1,7.7c-6.8,1.1-13.6,0.7-20,0c-3.3-0.4-6.7-1-9.9-1.9
		c-3.2-0.9-6.3-2-9.4-3.2c-6-2.5-11.5-5.3-17.1-7.6l2.3,0.4h-0.8l-0.4-0.1l-0.5-0.1c-0.3-0.1-0.6-0.2-0.8-0.3
		c-0.4-0.2-0.7-0.4-1-0.6c-0.5-0.4-0.9-0.8-1.2-1.4l2.4,2.1c-16.8-6.9-35-9.3-53-6.8c-17.9,2.4-34.8,9.5-48.9,20.6
		c-6.9,5.5-13,12-17.8,19.4c-4.8,7.3-8.2,15.4-10,23.9c-1.7,8.5-1.7,17.3,0,25.8c1.8,8.6,5.3,16.7,10.3,23.9l0.3,0.4l0.4,1l0,0
		c2.1,6.4,3.8,12.8,5.5,19.2c1.7,6.4,3.1,12.9,4.4,19.4c0.7,3.3,1.3,6.5,1.8,9.8c0.3,1.6,0.6,3.3,0.8,5s0.5,3.3,0.7,4.7
		c0.3,2.5,1.1,4.9,2.4,7c1.3,1.7,3.2,2.9,5.3,3.4c2.8,0.7,5.6,1.1,8.5,1.2l9.8,0.5l9.8,0.5l4.9,0.3c1.7,0.1,3.2,0.2,4.7,0.2
		c2.5,0.2,4.9-0.3,7.2-1.2c0.8-0.4,1.6-1,2.2-1.8c0.7-0.9,1.2-1.8,1.6-2.9c0.9-2.6,1.4-5.3,1.5-8.1c0.1-1.5,0.1-3,0.1-4.6v-1.3
		c0-0.3,0-0.5,0,0c0.2,0.7,0.6,1.4,1.3,1.9c0.4,0.3,0.3,0.2,0.2,0.1c-2.6-0.8-4.2-3.6-3.4-6.2c0.8-2.6,3.6-4.1,6.2-3.4l0.3,0.1
		L111.8,219.8z"/>
	
		<path id="path5257-0" inkscape:connector-curvature="0" inkscape:export-xdpi="300.06" inkscape:export-ydpi="300.06" class="st2" d="
		M307,42.1c-1,3.8-3.8,6.8-6.9,7.7c-0.4-0.4-0.7-0.7-1.1-1.1c-0.6-0.6-1.2-1.1-1.8-1.7c3.4-3.5,6-8.1,6-13.1c0-1.1-0.9-2-2-2
		c-1.1,0-2,0.9-2,2c0,1-0.2,2-0.5,3l0,0c-0.9,2.8-2.4,5.4-4.5,7.5c-0.4-0.3-0.7-0.6-1.1-0.9c-1.7-1.4-3.5-2.6-5.3-3.8
		c1.2-1.4,2.2-2.9,3-4.5c0.8-1.6,1.3-3.2,1.9-4.7c0.6-1.9,1.4-3.6,2.3-5.4c1.2-2.1,3.6-4.1,5.8-3.8c2.8,0.5,4.5,4.6,5.2,7.1
		C307.7,34,308,38.5,307,42.1L307,42.1z"/>
	
		<path id="path5259-3" inkscape:connector-curvature="0" inkscape:export-xdpi="300.06" inkscape:export-ydpi="300.06" class="st4" d="
		M313.3,43.9c-1.2,4.7-4.3,8.7-8.5,11.1c-0.7-0.9-1.4-1.7-2.2-2.5s-1.6-1.7-2.4-2.6c3.1-0.9,5.9-3.9,6.9-7.7c1.1-3.8,0.7-8.1-1-13.6
		c-0.7-2.4-2.4-6.6-5.2-7.1c-2.2-0.4-4.5,1.7-5.8,3.8c-0.9,1.7-1.7,3.5-2.3,5.4c-0.6,1.5-1.2,3.1-1.9,4.7c-0.8,1.6-1.8,3.2-3,4.5
		c-0.9-0.6-1.8-1.2-2.8-1.8c-0.9-0.6-2-1.1-2.9-1.7c1.2-1.1,2.2-2.4,2.9-3.9c0.6-1.3,1.1-2.6,1.7-4.1c0.7-2.2,1.7-4.4,2.8-6.4
		c2.2-3.8,6.8-7.8,12.4-6.9c3.3,0.6,7.8,3,10.3,11.6C314.3,33.3,314.6,39,313.3,43.9L313.3,43.9z"/>
	
		<path id="path5261-7" inkscape:connector-curvature="0" inkscape:export-xdpi="300.06" inkscape:export-ydpi="300.06" class="st0" d="
		M290.5,47.5L290.5,47.5L290.5,47.5L290.5,47.5z"/>
	
		<path id="path5263-6" inkscape:connector-curvature="0" inkscape:export-xdpi="300.06" inkscape:export-ydpi="300.06" class="st4" d="
		M369.6,130.3c-1.3-12.9-8.1-24.7-18.6-32.2c-5.2-3.8-11.1-6.4-17.4-7.8c-3-0.6-6.1-1-9.1-1.2l-3.3-0.3
		c-2.7-12.5-8.3-24.1-16.5-33.9c-0.7-0.9-1.4-1.7-2.2-2.5s-1.6-1.7-2.4-2.6c-0.4-0.4-0.7-0.7-1.1-1.1c-0.6-0.6-1.2-1.1-1.8-1.7
		c3.4-3.5,6-8.1,6-13.1c0-1.1-0.9-2-2-2c-1.1,0-2,0.9-2,2c0,1-0.2,2-0.5,3l0,0c-0.9,2.8-2.4,5.4-4.5,7.5c-0.4-0.3-0.7-0.6-1.1-0.9
		c-1.7-1.4-3.5-2.6-5.3-3.8c-0.9-0.6-1.8-1.2-2.8-1.8c-0.9-0.6-2-1.1-2.9-1.7c-2.9-1.6-5.8-3-8.8-4.2c-9.5-3.8-19.7-5.7-30-5.6
		c-5.1,0.1-10.2,0.6-15.2,1.6c-13.9,2.9-26.8,9.4-37.3,18.9c-1.1-2.9-2.6-5.6-4.4-8.1c-1.9-2.5-4.4-4.5-7.3-5.8
		c-1.6-0.7-3.3-1.1-5.1-1.2c-1.8-0.1-3.6,0.2-5.3,0.9c-3,1.2-5.6,3.2-7.6,5.8c-0.9,1.2-1.7,2.4-2.4,3.7c-0.7,1.3-1.3,2.6-1.7,4
		c-2.8,8.2-2,17.1,2.1,24.8c2.3,4.2,5.6,7.8,9.7,10.3c-2.3,7.4-3.6,15.2-3.6,23c-0.1,10.3,1.8,20.5,5.6,30
		c9.9,24.5,31.3,42.4,57.1,47.8c1.9,0.4,3.9,0.7,5.9,1c1.8,1.8,3.7,3.4,5.8,4.9c2.5,1.8,5.2,3.4,8,4.7c5.6,2.7,11.8,4.3,18,4.6
		c11.4,0.6,22.7-2.6,32.1-9.2c11.2,0.8,22.3-2.2,31.6-8.5c2.6,0.6,5.3,0.8,8,0.8c1.7-0.1,3.3-0.3,4.9-0.6c1.6-0.3,3.2-0.8,4.8-1.3
		c3.1-1.1,6.1-2.7,8.7-4.8c0.7-0.5,1.3-1,1.9-1.6c0.7-0.6,1.3-1.3,1.9-2c0.6-0.7,1.1-1.4,1.6-2.1c0.4-0.7,0.9-1.5,1.3-2.2
		c1.4-2.8,2.5-5.8,3.3-8.9c0.8-2.9,1.4-5.7,2.2-8.2l0.6-2.2c0.2-0.8,0.4-1.5,0.6-2.3C369.8,139.8,370.1,135,369.6,130.3L369.6,130.3
		z M360.8,138.9c-0.1,1.3-0.3,2.5-0.5,3.8c-0.2,0.6-0.2,1.3-0.4,1.9l-0.3,0.9l-0.3,1c-0.9,3-1.5,5.8-2.2,8.4
		c-0.6,2.5-1.5,4.9-2.6,7.3c-0.3,0.5-0.5,1-0.8,1.5c-0.3,0.5-0.6,0.9-1,1.3c-0.3,0.4-0.7,0.8-1.1,1.2c-0.4,0.4-0.9,0.8-1.4,1.2
		c-1.9,1.5-4.1,2.7-6.3,3.5c-1.2,0.4-2.3,0.7-3.5,1c-1.2,0.2-2.4,0.4-3.6,0.5c-2.5,0.1-5-0.2-7.4-0.8c-2.6-0.6-5.4-1.5-8.6-2.1
		c-3.4-0.7-7-0.7-10.4,0.1c-1.7,0.5-3.4,1.2-4.9,2.2c-1.4,0.9-2.7,1.8-4,2.9c-2.4,2-4.4,4.1-6.4,5.7c-8.3,6.8-18.7,10.2-29.4,9.7
		c-7-0.3-13.8-2.4-19.7-6.1c-2.7-1.6-5.2-3.6-7.4-5.7c-0.4-0.3-0.7-0.7-1-1c-1.5-1.6-3-3.3-4.2-5.1l-0.8-1.1c-1.4-2.2-2.7-4.6-3.8-7
		c-2.1-4.9-3.2-10.1-3.3-15.5c0-0.6-0.2-1.2-0.5-1.7c-1-1.6-3-2.1-4.6-1.1c-1,0.6-1.6,1.7-1.6,2.8l0,0c0,6.2,1.2,12.4,3.6,18.1
		c0.5,1.2,1.1,2.4,1.7,3.6c-36.7-10.1-58.3-48.1-48.3-84.8c0.1-0.2,0.1-0.4,0.2-0.7c1,0.3,1.9,0.5,2.9,0.7
		c5.4,1.1,11.1,0.7,16.2-1.4c1.5-0.6,2.2-2.3,1.6-3.7c-0.3-0.7-0.9-1.3-1.6-1.6c-0.6-0.2-1.2-0.3-1.8-0.1h-0.1
		c-4.9,1.2-10.1,0.9-14.8-1c-1.2-0.5-2.4-1-3.6-1.7c-1.2-0.7-2.3-1.4-3.3-2.3c-0.6-0.5-1.1-1-1.7-1.6c-2.8-3-4.6-6.8-5.4-10.8
		c-0.8-4-0.5-8.2,0.8-12.1c0.3-0.9,0.7-1.9,1.2-2.7c0.4-0.9,0.9-1.7,1.5-2.4c1-1.3,2.3-2.4,3.8-3.1c1.2-0.5,2.7-0.5,3.9,0
		c1.6,0.7,3,1.7,4.2,3.1c0.3,0.4,0.6,0.7,0.9,1.1s0.6,0.9,0.8,1.3c0.6,0.9,1.1,1.9,1.6,2.9s1.1,2.2,1.7,3.4c0.6,1.2,1,2.1,1.6,3.2
		l0.3,0.5c0.6,1.2,1.4,2.3,2.2,3.4c0.7,1,1.6,2,2.5,2.9c1.1,1,2.2,2,3.5,2.7c1.3,0.8,2.7,1.3,4.1,1.6h0.2c1.6,0.3,3.1-0.8,3.3-2.3
		c0.2-1.3-0.5-2.7-1.7-3.2h-0.1c-2.9-1.1-5.1-3.9-6.8-7.2c20-19.9,50.1-25.6,76-14.4c5.6,2.4,10.9,5.6,15.6,9.4
		c0.5,0.4,1,0.8,1.5,1.2c0.1,0.1,0.2,0.2,0.3,0.3c0.6,0.5,1.2,1,1.8,1.6c1,1,2.1,2,3.1,3c6.3,6.5,11.3,14.2,14.6,22.6
		c1.8,4.5,3.1,9.2,3.9,13.9c0.2,1.1,0.3,2.2,0.5,3.4c0,0.1,0.1,0.1,0.1,0.2c0.8,1.3,2.2,2.2,3.7,2.4c0.7,0.1,1.4,0.1,2,0.2
		c1.9,0.2,3.8,0.3,5.7,0.4l1,0.1c2.7,0.2,5.4,0.5,8,1c15.5,3.1,27.3,15.9,29,31.6C360.9,133.8,361,136.4,360.8,138.9L360.8,138.9z"
		/>
	
		<path id="path5265-9" inkscape:connector-curvature="0" inkscape:export-xdpi="300.06" inkscape:export-ydpi="300.06" class="st0" d="
		M311.2,95.5c0,0.1,0,0.2,0,0.2l0.1-0.1C311.2,95.6,311.2,95.5,311.2,95.5z M310.7,92.1c0,0.2-0.1,0.4-0.1,0.6
		c-0.1,1,0.1,1.9,0.6,2.8C311,94.4,310.9,93.3,310.7,92.1L310.7,92.1z M271.9,118.9c-2.2,0.7-4.2,1.9-5.8,3.5l6.1-3.6L271.9,118.9z"
		/>
	
		<path id="path5267-1" inkscape:connector-curvature="0" inkscape:export-xdpi="300.06" inkscape:export-ydpi="300.06" class="st3" d="
		M311.2,95.5c0,0.1,0,0.2,0,0.2l0.1-0.1C311.2,95.6,311.2,95.5,311.2,95.5z M178.5,61.2c-0.1,0.1-0.1,0.2-0.2,0.3l0.9,0.7
		C179,61.8,178.7,61.5,178.5,61.2L178.5,61.2z"/>
	
		<path id="path5269-4" inkscape:connector-curvature="0" inkscape:export-xdpi="300.06" inkscape:export-ydpi="300.06" class="st3" d="
		M311.2,95.5c-0.5-0.9-0.7-1.8-0.6-2.8c0-0.2,0-0.4,0.1-0.6C310.9,93.3,311,94.4,311.2,95.5z"/>
	
		<path id="path5271-7" inkscape:connector-curvature="0" inkscape:export-xdpi="300.06" inkscape:export-ydpi="300.06" class="st0" d="
		M179.2,62.1l-0.9-0.7c0.1-0.1,0.1-0.2,0.2-0.3C178.7,61.5,179,61.8,179.2,62.1L179.2,62.1z"/>
	
		<path id="path5273-9" inkscape:connector-curvature="0" inkscape:export-xdpi="300.06" inkscape:export-ydpi="300.06" class="st4" d="
		M285.7,136.8c-0.9,1-1.9,1.7-3.1,2.3c-2.4,1.2-5,1.9-7.6,2.2c-0.5,0.1-1,0.1-1.5,0.1c-0.7,0-1.4-0.1-2.1-0.3
		c-1.6-0.4-2.8-1.6-3.3-3.2c-0.5-1.9,0.3-4,2.3-5.8s8.3-5.1,12.5-3.9c1.9,0.5,3.4,2,3.9,3.9C287.2,133.7,286.8,135.5,285.7,136.8
		L285.7,136.8z"/>
	
		<path id="path5275-5" inkscape:connector-curvature="0" inkscape:export-xdpi="300.06" inkscape:export-ydpi="300.06" class="st4" d="
		M345.8,129.1c0,0.2,0,0.5,0,0.7c-0.3,1.6-1.4,2.9-2.9,3.5c-1.1,0.4-2.3,0.6-3.5,0.6h-0.1c-2.7,0-5.3-0.5-7.8-1.3
		c-1.2-0.4-2.4-1-3.4-1.9c-1.3-1.2-1.9-2.9-1.6-4.6c0.3-1.9,1.6-3.6,3.5-4.3c4.1-1.7,10.5,0.9,12.9,2.5
		C344.8,125.7,345.8,127.4,345.8,129.1L345.8,129.1z"/>
	
		<path id="path5277-3" inkscape:connector-curvature="0" inkscape:export-xdpi="300.06" inkscape:export-ydpi="300.06" class="st3" d="
		M179.2,62.1l-0.9-0.7c0.1-0.1,0.1-0.2,0.2-0.3C178.7,61.5,179,61.8,179.2,62.1L179.2,62.1z"/>
	
		<path id="path5279-8" inkscape:connector-curvature="0" inkscape:export-xdpi="300.06" inkscape:export-ydpi="300.06" class="st4" d="
		M293.4,84.1c0,5-3.5,9.1-7.8,9.1c-4.3,0-7.8-4.1-7.8-9.1c0-4.4,2.8-8.1,6.4-8.9c-0.8,1-1.2,2.2-1.2,3.4c0,3,2.4,5.5,5.4,5.5
		c1.9,0,3.6-0.9,4.6-2.5C293.3,82.5,293.4,83.3,293.4,84.1L293.4,84.1z"/>
	
		<path id="path5281-4" inkscape:connector-curvature="0" inkscape:export-xdpi="300.06" inkscape:export-ydpi="300.06" class="st4" d="
		M250,81.3c-0.4,0.3-0.8,0.5-1.3,0.5c-0.6,0-1.2-0.3-1.6-0.7c-0.4-0.5-0.8-0.9-1.3-1.3c-1.9-1.6-4.3-2.5-6.8-2.5H239
		c-2.5,0-4.8,0.9-6.7,2.4c-0.5,0.4-0.9,0.8-1.3,1.3c-0.7,0.9-2,1-2.9,0.2c-0.9-0.7-1-2-0.2-2.9c0,0,0,0,0,0
		c2.8-3.2,6.9-5.1,11.2-5.1h0.1c4.3,0.1,8.4,2,11.2,5.4C251,79.3,250.9,80.6,250,81.3C250,81.3,250,81.3,250,81.3L250,81.3z"/>
	
		<path id="path5283-3" inkscape:connector-curvature="0" inkscape:export-xdpi="300.06" inkscape:export-ydpi="300.06" class="st4" d="
		M284.8,122.4c-0.4,1-1.6,1.5-2.6,1c0,0-0.1,0-0.1,0c-5.8-2.7-12.7-0.4-15.6,5.2c-0.3,0.7-1,1.1-1.8,1.1c-0.3,0-0.6-0.1-0.9-0.2
		c-1-0.5-1.4-1.7-0.9-2.7c0,0,0,0,0,0c0.8-1.6,1.9-3,3.2-4.2c1.7-1.6,3.7-2.8,5.8-3.5l0.2-0.1c3.9-1.2,8-1,11.7,0.8
		C284.8,120.2,285.3,121.4,284.8,122.4C284.8,122.4,284.8,122.4,284.8,122.4L284.8,122.4z"/>
	
		<path id="path5285-2" inkscape:connector-curvature="0" inkscape:export-xdpi="300.06" inkscape:export-ydpi="300.06" class="st2" d="
		M360.7,131.3c-1.8-15.7-13.5-28.4-29-31.6c-2.6-0.5-5.3-0.8-8-1l-1-0.1c-1.8-0.1-3.7-0.3-5.7-0.4c-0.7,0-1.4-0.1-2-0.2
		c-1.5-0.2-2.9-1-3.7-2.4l-0.1,0.1c0-0.1,0-0.2,0-0.2c-0.5-0.9-0.7-1.8-0.6-2.8c0-0.2,0-0.4,0.1-0.6c-0.8-4.8-2.1-9.4-3.9-13.9
		c-3.4-8.4-8.3-16.1-14.6-22.6c-1-1-2-2-3.1-3c-0.6-0.5-1.2-1-1.8-1.6c-0.1-0.1-0.2-0.2-0.3-0.3c-0.5-0.4-1-0.8-1.5-1.2
		c-4.8-3.8-10-7-15.6-9.4c-8.4-3.6-17.5-5.5-26.7-5.7c-18.5-0.2-36.3,7-49.4,20.1c1.7,3.3,3.9,6.1,6.8,7.2h0.1
		c1.5,0.6,2.2,2.3,1.6,3.8c-0.5,1.3-1.8,2-3.2,1.7H199c-1.4-0.3-2.8-0.9-4.1-1.6c-1.3-0.8-2.5-1.7-3.5-2.7c-0.9-0.9-1.7-1.9-2.5-2.9
		c-0.8-1.1-1.5-2.2-2.2-3.4l-0.3-0.5c-0.6-1.1-1.1-2.2-1.6-3.2c-0.5-1.1-1.1-2.3-1.7-3.4s-1-2-1.6-2.9c-0.3-0.4-0.6-0.9-0.8-1.3
		c-0.3-0.4-0.6-0.8-0.9-1.1c-1.1-1.3-2.5-2.4-4.2-3.1c-1.2-0.5-2.7-0.5-3.9,0c-1.5,0.7-2.8,1.7-3.8,3.1c-0.6,0.8-1.1,1.6-1.5,2.4
		c-0.5,0.9-0.9,1.8-1.2,2.7c-1.3,3.9-1.6,8.1-0.8,12.1c0.8,4,2.6,7.8,5.4,10.8c0.5,0.6,1.1,1.1,1.7,1.6c1,0.9,2.1,1.7,3.3,2.3
		c1.1,0.7,2.3,1.2,3.6,1.7c4.7,1.9,9.9,2.2,14.8,1h0.1c0.6-0.2,1.2-0.1,1.8,0.1c1.5,0.6,2.2,2.3,1.6,3.7c-0.3,0.7-0.9,1.3-1.6,1.6
		c-5.2,2-10.8,2.5-16.2,1.4c-1-0.2-1.9-0.4-2.9-0.7c-10.5,36.6,10.8,74.8,47.4,85.3c0.2,0.1,0.4,0.1,0.7,0.2
		c-0.6-1.2-1.1-2.4-1.7-3.6c-2.4-5.7-3.6-11.9-3.6-18.1l0,0c0-1.9,1.5-3.3,3.4-3.3c1.2,0,2.2,0.6,2.8,1.6c0.3,0.5,0.5,1.1,0.5,1.7
		c0.1,5.3,1.2,10.6,3.3,15.5c1,2.4,2.3,4.8,3.8,7l0.8,1.1c1.3,1.8,2.7,3.5,4.2,5.1c0.3,0.4,0.7,0.7,1,1c2.3,2.2,4.8,4.1,7.4,5.7
		c5.9,3.7,12.7,5.8,19.7,6.1c10.7,0.5,21.1-3,29.4-9.7c2-1.6,4-3.7,6.4-5.7c1.3-1.1,2.6-2,4-2.9c1.5-0.9,3.2-1.7,4.9-2.2
		c3.4-0.8,6.9-0.9,10.4-0.1c3.1,0.6,5.9,1.5,8.6,2.1c2.4,0.6,4.9,0.9,7.4,0.8c1.2-0.1,2.4-0.2,3.6-0.5c1.2-0.3,2.4-0.6,3.5-1
		c2.3-0.8,4.4-2,6.3-3.5c0.5-0.4,0.9-0.8,1.4-1.2c0.4-0.4,0.7-0.8,1.1-1.2c0.4-0.4,0.7-0.9,1-1.3c0.3-0.5,0.6-1,0.8-1.5
		c1.1-2.3,2-4.8,2.6-7.3c0.7-2.7,1.3-5.5,2.2-8.4l0.3-1l0.3-0.9c0.2-0.6,0.3-1.3,0.4-1.9C361,139,361.2,135.1,360.7,131.3
		L360.7,131.3z M194.8,72.8c-0.2,1-1,1.7-2,1.7c-0.1,0-0.2,0-0.4,0c-5.1-0.9-9.7-3.2-13.5-6.7c-1-0.9-1.9-1.9-2.8-2.9
		c-1.3-1.6-2.4-3.4-3.3-5.3c-0.5-1-0.1-2.2,0.9-2.7c1-0.5,2.2-0.1,2.7,0.9c0,0,0,0,0,0c0.6,1.2,1.2,2.3,2,3.4c0.2,0.3,0.5,0.6,0.7,1
		c0.6,0.7,1.2,1.4,1.9,2.1c0.9,0.9,1.9,1.7,3,2.5c1.3,0.9,2.7,1.7,4.1,2.3c1.6,0.7,3.2,1.2,4.9,1.4C194.3,70.6,195,71.7,194.8,72.8
		C194.8,72.8,194.8,72.8,194.8,72.8L194.8,72.8z M238.7,100.8c-4.3,0-7.8-4-7.8-8.9c0-4.8,3.3-8.7,7.4-8.9c-0.9,1-1.3,2.2-1.3,3.5
		c0,3,2.5,5.5,5.5,5.5c1.5,0,3-0.6,4-1.7c0.1,0.5,0.1,1.1,0.1,1.6C246.5,96.8,243,100.8,238.7,100.8L238.7,100.8z M250,81.3
		c-0.4,0.3-0.8,0.5-1.3,0.5c-0.6,0-1.2-0.3-1.6-0.7c-0.4-0.5-0.8-0.9-1.3-1.3c-1.9-1.6-4.3-2.5-6.8-2.5H239c-2.5,0-4.8,0.9-6.7,2.4
		c-0.5,0.4-0.9,0.8-1.3,1.3c-0.7,0.9-2,1-2.9,0.2c-0.9-0.7-1-2-0.2-2.9c0,0,0,0,0,0c2.8-3.2,6.9-5.1,11.2-5.1h0.1
		c4.3,0.1,8.4,2,11.2,5.4C251,79.3,250.9,80.6,250,81.3C250,81.3,250,81.3,250,81.3L250,81.3z M266.5,128.6c-0.3,0.7-1,1.1-1.8,1.1
		c-0.3,0-0.6-0.1-0.9-0.2c-1-0.5-1.4-1.7-0.9-2.7c0,0,0,0,0,0c0.8-1.6,1.9-3,3.2-4.2c1.7-1.6,3.7-2.8,5.8-3.5l0.2-0.1
		c3.9-1.2,8-1,11.7,0.8c1,0.5,1.4,1.7,1,2.7c-0.5,1-1.7,1.4-2.7,1C276.3,120.6,269.4,122.9,266.5,128.6L266.5,128.6z M285.7,136.8
		c-0.9,1-1.9,1.7-3.1,2.3c-2.4,1.2-5,1.9-7.6,2.2c-0.5,0.1-1,0.1-1.5,0.1c-0.7,0-1.4-0.1-2.1-0.3c-1.6-0.4-2.8-1.6-3.3-3.2
		c-0.6-1.9,0.3-4,2.3-5.8c2-1.8,8.3-5.1,12.5-3.9c1.9,0.5,3.4,2,3.9,3.9C287.2,133.7,286.8,135.5,285.7,136.8L285.7,136.8z
		 M285.5,93.2c-4.3,0-7.8-4.1-7.8-9.1c0-4.4,2.8-8.1,6.4-8.9c-0.8,1-1.2,2.2-1.2,3.4c0,3,2.4,5.5,5.4,5.5c1.9,0,3.6-0.9,4.6-2.5
		c0.2,0.8,0.3,1.7,0.3,2.5C293.4,89.1,289.9,93.2,285.5,93.2L285.5,93.2z M293.7,70.4c-0.7,0.8-2,0.9-2.8,0.2c0,0,0,0,0,0
		c-3.7-3.4-9.5-3.1-12.8,0.6c-1.3,1.4-2.1,3.3-2.3,5.2c-0.1,1-1,1.8-2,1.8h-0.2c-1.1-0.1-1.9-1-1.8-2.2c0,0,0,0,0-0.1
		c0.7-7.2,7.1-12.5,14.3-11.8c2.8,0.3,5.5,1.5,7.6,3.4C294.5,68.2,294.5,69.5,293.7,70.4C293.8,70.3,293.8,70.3,293.7,70.4
		L293.7,70.4z M345.7,129.8c-0.3,1.6-1.4,2.9-2.9,3.5c-1.1,0.4-2.3,0.6-3.5,0.6h-0.1c-2.7,0-5.3-0.5-7.8-1.3c-1.2-0.4-2.4-1-3.4-1.9
		c-1.3-1.2-1.9-2.9-1.6-4.6c0.3-1.9,1.6-3.6,3.5-4.3c4.1-1.7,10.5,0.9,12.9,2.5c2,1.4,3,3,3,4.8
		C345.8,129.4,345.8,129.6,345.7,129.8L345.7,129.8z M348.3,119.1c-0.8,0.8-2.1,0.8-2.8,0c0,0,0,0,0,0c-4.8-5-12.5-5.9-18.3-2
		c-0.9,0.6-2.2,0.4-2.8-0.5c-0.6-0.9-0.4-2.2,0.5-2.8c7.4-5,17.3-3.9,23.5,2.6C349.1,117.1,349.1,118.3,348.3,119.1
		C348.3,119.1,348.3,119.1,348.3,119.1L348.3,119.1z"/>
	
		<path id="path5287-1" inkscape:connector-curvature="0" inkscape:export-xdpi="300.06" inkscape:export-ydpi="300.06" class="st4" d="
		M194.8,72.8c-0.2,1-1,1.7-2,1.7c-0.1,0-0.2,0-0.4,0c-5.1-0.9-9.7-3.2-13.5-6.7c-1-0.9-1.9-1.9-2.8-2.9c-1.3-1.6-2.4-3.4-3.3-5.3
		c-0.5-1-0.1-2.2,0.9-2.7c1-0.5,2.2-0.1,2.7,0.9c0,0,0,0,0,0c0.6,1.2,1.2,2.3,2,3.4c-0.1,0.1-0.1,0.2-0.2,0.3l0.9,0.7
		c0.6,0.7,1.2,1.4,1.9,2.1c0.9,0.9,1.9,1.7,3,2.5c1.3,0.9,2.7,1.7,4.1,2.3c1.6,0.7,3.2,1.2,4.9,1.5C194.3,70.6,195,71.7,194.8,72.8
		C194.8,72.8,194.8,72.8,194.8,72.8L194.8,72.8z"/>
	
		<path id="path5289-4" inkscape:connector-curvature="0" inkscape:export-xdpi="300.06" inkscape:export-ydpi="300.06" class="st4" d="
		M293.7,70.4c-0.7,0.8-2,0.9-2.8,0.2c0,0,0,0,0,0c-3.7-3.4-9.5-3.1-12.8,0.6c-1.3,1.4-2.1,3.3-2.3,5.2c-0.1,1-1,1.8-2,1.8h-0.2
		c-1.1-0.1-1.9-1-1.8-2.2c0,0,0,0,0-0.1c0.7-7.2,7.1-12.5,14.3-11.8c2.8,0.3,5.5,1.5,7.6,3.4C294.5,68.2,294.5,69.5,293.7,70.4
		C293.8,70.3,293.8,70.3,293.7,70.4L293.7,70.4z"/>
	
		<path id="path5291-9" inkscape:connector-curvature="0" inkscape:export-xdpi="300.06" inkscape:export-ydpi="300.06" class="st4" d="
		M246.5,91.8c0,4.9-3.5,8.9-7.8,8.9c-4.3,0-7.8-4-7.8-8.9c0-4.8,3.3-8.7,7.4-8.9c-0.9,1-1.3,2.2-1.3,3.5c0,3,2.5,5.5,5.5,5.5
		c1.5,0,3-0.6,4-1.7C246.4,90.8,246.5,91.3,246.5,91.8L246.5,91.8z"/>
	
		<path id="path5293-8" inkscape:connector-curvature="0" inkscape:export-xdpi="300.06" inkscape:export-ydpi="300.06" class="st4" d="
		M348.3,119.1c-0.8,0.8-2.1,0.8-2.8,0c0,0,0,0,0,0c-4.8-5-12.5-5.9-18.3-2c-0.9,0.6-2.2,0.4-2.8-0.5c-0.6-0.9-0.4-2.2,0.5-2.8l0,0
		c7.4-5,17.3-3.9,23.5,2.6C349.1,117.1,349.1,118.3,348.3,119.1C348.3,119.1,348.3,119.1,348.3,119.1z"/>
	
		<path id="path5295-4" inkscape:connector-curvature="0" inkscape:export-xdpi="300.06" inkscape:export-ydpi="300.06" class="st0" d="
		M223.8,221.9c12.3,0.3,27.4-1.1,40.3-12"/>
	
		<path id="path5297-3" inkscape:connector-curvature="0" inkscape:export-xdpi="300.06" inkscape:export-ydpi="300.06" class="st4" d="
		M223.9,218.4c1.7-0.6,3.4-1.1,5.2-1.4c1.7-0.3,3.4-0.5,5-0.6c3.3-0.3,6.6-0.8,9.8-1.5c0.8-0.2,1.6-0.4,2.4-0.6l1.2-0.3l1.2-0.4
		l1.2-0.4l1.1-0.4l1.2-0.4c0.4-0.1,0.8-0.3,1.1-0.5c3-1.3,6-2.8,8.8-4.6l0.1-0.1c1.6-1,3.7-0.5,4.7,1.1c0.8,1.3,0.6,3-0.4,4.1
		c-2.7,2.8-5.7,5.3-9.1,7.3c-0.8,0.5-1.7,1-2.6,1.4l-1.3,0.7l-1.3,0.6c-0.9,0.4-1.8,0.8-2.7,1.1c-0.9,0.3-1.8,0.6-2.8,0.9
		c-3.7,1.1-7.5,1.9-11.4,2.2c-1.9,0.2-3.8,0.2-5.7,0c-1.9-0.2-3.8-0.6-5.6-1.4c-1.9-0.8-2.8-3-2-4.9c0.4-0.9,1.1-1.6,2-2
		L223.9,218.4z"/>
</g>
</svg>
